<!--?xml version="1.0" encoding="utf-8"?-->
<!-- Generator: Adobe Illustrator 19.1.1, SVG Export Plug-In . SVG Version: 6.00 Build 0)  -->
<svg version="1.1" id="_x31_0" xmlns="http://www.w3.org/2000/svg" xmlns:xlink="http://www.w3.org/1999/xlink" x="0px" y="0px" viewBox="0 0 512 512" style="width: 256px; height: 256px; opacity: 1;" xml:space="preserve">
<style type="text/css">
	.st0{fill:#374149;}
</style>
<g>
	<path class="st0" d="M360.455,163.07c2.359,1.484,4.754,2.918,7.039,4.508v-0.102c0.054,0.035,0.11,0.066,0.164,0.102v-55.895
		C367.658,50.117,317.588,0,255.975,0c-61.562,0-111.684,50.117-111.684,111.683v55.95c15.035-10.133,31.488-18.305,49.031-24.137
		v-31.813c0-34.542,28.11-62.652,62.653-62.652c34.594,0,62.648,28.11,62.648,62.652v31.813
		C333.428,148.418,347.396,155.054,360.455,163.07z" style="fill: rgba(242, 104, 99, 0.9);"></path>
	<path class="st0" d="M226.119,323.992c0.164,0.215,0.379,0.434,0.598,0.649c0.707,0.82,1.473,1.582,2.29,2.343
		c6.699,6.266,10.621,14.875,10.621,24.082v5.066c0.054,0.492,0.054,0.981,0.054,1.473v34.59c0,7.355,4.798,13.516,11.442,15.637
		c0.656,0.168,1.309,0.328,2.016,0.438c0.438,0.11,0.816,0.164,1.199,0.164c1.09,0.106,2.179,0.106,3.324,0
		c0.383,0,0.762-0.054,1.199-0.164c0.652-0.11,1.305-0.219,2.016-0.438c6.644-2.121,11.441-8.282,11.441-15.637v-34.59
		c0-0.492,0-0.981,0.051-1.473v-5.066c0-9.207,3.926-17.816,10.625-24.082c0.817-0.762,1.582-1.523,2.289-2.343
		c0.219-0.215,0.383-0.434,0.598-0.649c0.766-0.875,1.473-1.801,2.126-2.726c5.558-7.629,8.39-17.324,7.137-27.73
		c-0.055-1.09-0.27-2.18-0.489-3.27c-1.582-7.68-5.394-14.598-10.734-19.938c-5.39-5.394-12.312-9.207-19.992-10.789
		c-1.254-0.274-2.508-0.434-3.762-0.598c-1.121-0.11-2.199,0.019-3.305,0c-0.301-0.008-0.606-0.043-0.902-0.043
		c-0.285,0-0.574,0.035-0.859,0.043c-1.086,0.019-2.199-0.11-3.266,0c-1.254,0.164-2.508,0.324-3.762,0.598
		c-7.68,1.582-14.602,5.394-19.993,10.789c-5.339,5.34-9.152,12.258-10.734,19.938c-0.218,1.09-0.433,2.18-0.488,3.27
		c-0.218,1.523-0.328,3.106-0.328,4.683c0,8.61,2.722,16.563,7.465,23.047C224.646,322.191,225.353,323.117,226.119,323.992z" style="fill: rgba(242, 104, 99, 0.9);"></path>
	<path class="st0" d="M77.662,333.633C77.662,431.969,157.635,512,255.975,512c98.386,0,178.363-80.031,178.363-178.367
		c0-56.114-26.039-106.238-66.68-138.977c-14.602-11.77-31.164-21.305-49.035-28.058c-19.504-7.301-40.586-11.332-62.648-11.332
		c-22.066,0-43.149,4.031-62.653,11.332c-17.871,6.754-34.43,16.289-49.031,28.11C103.646,227.394,77.662,277.57,77.662,333.633z
		 M194.467,226.199c18.141-10.516,39.113-16.453,61.508-16.453c22.39,0,43.363,5.937,61.504,16.453
		c15.636,8.879,29.148,21.191,39.5,35.793c14.437,20.211,22.882,44.946,22.882,71.641c0,68.317-55.57,123.886-123.886,123.886
		c-68.266,0-123.836-55.57-123.836-123.886c0-26.695,8.445-51.43,22.882-71.641C165.373,247.39,178.884,235.078,194.467,226.199z" style="fill: rgba(242, 104, 99, 0.9);"></path>
</g>
</svg>
